<svg width="21" height="21" viewBox="0 0 21 21" fill="none" xmlns="http://www.w3.org/2000/svg">
<g clip-path="url(#clip0_1_15)">
<rect width="21" height="21" fill="white"/>
<rect y="4.66" width="21" height="2.33" fill="#E11F27"/>
<rect y="13.98" width="21" height="2.33" fill="#E11F27"/>
<rect y="18.64" width="21" height="2.4" fill="#E11F27"/>
<rect y="9.32001" width="21" height="2.33" fill="#E11F27"/>
<rect width="21" height="2.33" fill="#E11F27"/>
<rect width="13" height="9.32" fill="#001E5D"/>
<path d="M1.5 1L1.61226 1.34549H1.97553L1.68164 1.55902L1.79389 1.90451L1.5 1.69098L1.20611 1.90451L1.31836 1.55902L1.02447 1.34549H1.38774L1.5 1Z" fill="#D9D9D9"/>
<path d="M1.5 3L1.61226 3.34549H1.97553L1.68164 3.55902L1.7939 3.90451L1.5 3.69098L1.20611 3.90451L1.31837 3.55902L1.02448 3.34549H1.38775L1.5 3Z" fill="#D9D9D9"/>
<path d="M2.47553 6L2.58779 6.34549H2.95106L2.65716 6.55902L2.76942 6.90451L2.47553 6.69098L2.18164 6.90451L2.29389 6.55902L2 6.34549H2.36327L2.47553 6Z" fill="#D9D9D9"/>
<path d="M2.5 4L2.61226 4.34549H2.97553L2.68164 4.55902L2.79389 4.90451L2.5 4.69098L2.20611 4.90451L2.31836 4.55902L2.02447 4.34549H2.38774L2.5 4Z" fill="#D9D9D9"/>
<path d="M2.5 2L2.61226 2.34549H2.97553L2.68164 2.55902L2.79389 2.90451L2.5 2.69098L2.20611 2.90451L2.31836 2.55902L2.02447 2.34549H2.38774L2.5 2Z" fill="#D9D9D9"/>
<path d="M1.5 5L1.61226 5.34549H1.97553L1.68164 5.55902L1.79389 5.90451L1.5 5.69098L1.20611 5.90451L1.31836 5.55902L1.02447 5.34549H1.38774L1.5 5Z" fill="#D9D9D9"/>
<path d="M1.5 7L1.61226 7.34549H1.97553L1.68164 7.55902L1.79389 7.90451L1.5 7.69098L1.20611 7.90451L1.31836 7.55902L1.02447 7.34549H1.38774L1.5 7Z" fill="#D9D9D9"/>
<path d="M3.5 1L3.61226 1.34549H3.97553L3.68164 1.55902L3.79389 1.90451L3.5 1.69098L3.20611 1.90451L3.31836 1.55902L3.02447 1.34549H3.38774L3.5 1Z" fill="#D9D9D9"/>
<path d="M3.5 3L3.61226 3.34549H3.97553L3.68164 3.55902L3.7939 3.90451L3.5 3.69098L3.20611 3.90451L3.31837 3.55902L3.02448 3.34549H3.38775L3.5 3Z" fill="#D9D9D9"/>
<path d="M4.47553 6L4.58779 6.34549H4.95106L4.65716 6.55902L4.76942 6.90451L4.47553 6.69098L4.18164 6.90451L4.29389 6.55902L4 6.34549H4.36327L4.47553 6Z" fill="#D9D9D9"/>
<path d="M4.5 4L4.61226 4.34549H4.97553L4.68164 4.55902L4.79389 4.90451L4.5 4.69098L4.20611 4.90451L4.31836 4.55902L4.02447 4.34549H4.38774L4.5 4Z" fill="#D9D9D9"/>
<path d="M4.5 2L4.61226 2.34549H4.97553L4.68164 2.55902L4.79389 2.90451L4.5 2.69098L4.20611 2.90451L4.31836 2.55902L4.02447 2.34549H4.38774L4.5 2Z" fill="#D9D9D9"/>
<path d="M3.5 5L3.61226 5.34549H3.97553L3.68164 5.55902L3.79389 5.90451L3.5 5.69098L3.20611 5.90451L3.31836 5.55902L3.02447 5.34549H3.38774L3.5 5Z" fill="#D9D9D9"/>
<path d="M3.5 7L3.61226 7.34549H3.97553L3.68164 7.55902L3.79389 7.90451L3.5 7.69098L3.20611 7.90451L3.31836 7.55902L3.02447 7.34549H3.38774L3.5 7Z" fill="#D9D9D9"/>
<path d="M5.5 1L5.61226 1.34549H5.97553L5.68164 1.55902L5.79389 1.90451L5.5 1.69098L5.20611 1.90451L5.31836 1.55902L5.02447 1.34549H5.38774L5.5 1Z" fill="#D9D9D9"/>
<path d="M5.5 3L5.61226 3.34549H5.97553L5.68164 3.55902L5.7939 3.90451L5.5 3.69098L5.20611 3.90451L5.31837 3.55902L5.02448 3.34549H5.38775L5.5 3Z" fill="#D9D9D9"/>
<path d="M6.47553 6L6.58779 6.34549H6.95106L6.65716 6.55902L6.76942 6.90451L6.47553 6.69098L6.18164 6.90451L6.29389 6.55902L6 6.34549H6.36327L6.47553 6Z" fill="#D9D9D9"/>
<path d="M6.5 4L6.61226 4.34549H6.97553L6.68164 4.55902L6.79389 4.90451L6.5 4.69098L6.20611 4.90451L6.31836 4.55902L6.02447 4.34549H6.38774L6.5 4Z" fill="#D9D9D9"/>
<path d="M6.5 2L6.61226 2.34549H6.97553L6.68164 2.55902L6.79389 2.90451L6.5 2.69098L6.20611 2.90451L6.31836 2.55902L6.02447 2.34549H6.38774L6.5 2Z" fill="#D9D9D9"/>
<path d="M5.5 5L5.61226 5.34549H5.97553L5.68164 5.55902L5.79389 5.90451L5.5 5.69098L5.20611 5.90451L5.31836 5.55902L5.02447 5.34549H5.38774L5.5 5Z" fill="#D9D9D9"/>
<path d="M5.5 7L5.61226 7.34549H5.97553L5.68164 7.55902L5.79389 7.90451L5.5 7.69098L5.20611 7.90451L5.31836 7.55902L5.02447 7.34549H5.38774L5.5 7Z" fill="#D9D9D9"/>
<path d="M7.5 1L7.61226 1.34549H7.97553L7.68164 1.55902L7.79389 1.90451L7.5 1.69098L7.20611 1.90451L7.31836 1.55902L7.02447 1.34549H7.38774L7.5 1Z" fill="#D9D9D9"/>
<path d="M7.5 3L7.61226 3.34549H7.97553L7.68164 3.55902L7.7939 3.90451L7.5 3.69098L7.20611 3.90451L7.31837 3.55902L7.02448 3.34549H7.38775L7.5 3Z" fill="#D9D9D9"/>
<path d="M8.47553 6L8.58779 6.34549H8.95106L8.65716 6.55902L8.76942 6.90451L8.47553 6.69098L8.18164 6.90451L8.29389 6.55902L8 6.34549H8.36327L8.47553 6Z" fill="#D9D9D9"/>
<path d="M8.5 4L8.61226 4.34549H8.97553L8.68164 4.55902L8.79389 4.90451L8.5 4.69098L8.20611 4.90451L8.31836 4.55902L8.02447 4.34549H8.38774L8.5 4Z" fill="#D9D9D9"/>
<path d="M8.5 2L8.61226 2.34549H8.97553L8.68164 2.55902L8.79389 2.90451L8.5 2.69098L8.20611 2.90451L8.31836 2.55902L8.02447 2.34549H8.38774L8.5 2Z" fill="#D9D9D9"/>
<path d="M7.5 5L7.61226 5.34549H7.97553L7.68164 5.55902L7.79389 5.90451L7.5 5.69098L7.20611 5.90451L7.31836 5.55902L7.02447 5.34549H7.38774L7.5 5Z" fill="#D9D9D9"/>
<path d="M7.5 7L7.61226 7.34549H7.97553L7.68164 7.55902L7.79389 7.90451L7.5 7.69098L7.20611 7.90451L7.31836 7.55902L7.02447 7.34549H7.38774L7.5 7Z" fill="#D9D9D9"/>
<path d="M9.5 1L9.61226 1.34549H9.97553L9.68164 1.55902L9.79389 1.90451L9.5 1.69098L9.20611 1.90451L9.31836 1.55902L9.02447 1.34549H9.38774L9.5 1Z" fill="#D9D9D9"/>
<path d="M9.5 3L9.61226 3.34549H9.97553L9.68164 3.55902L9.7939 3.90451L9.5 3.69098L9.20611 3.90451L9.31837 3.55902L9.02448 3.34549H9.38775L9.5 3Z" fill="#D9D9D9"/>
<path d="M10.4755 6L10.5878 6.34549H10.9511L10.6572 6.55902L10.7694 6.90451L10.4755 6.69098L10.1816 6.90451L10.2939 6.55902L10 6.34549H10.3633L10.4755 6Z" fill="#D9D9D9"/>
<path d="M10.5 4L10.6123 4.34549H10.9755L10.6816 4.55902L10.7939 4.90451L10.5 4.69098L10.2061 4.90451L10.3184 4.55902L10.0245 4.34549H10.3877L10.5 4Z" fill="#D9D9D9"/>
<path d="M10.5 2L10.6123 2.34549H10.9755L10.6816 2.55902L10.7939 2.90451L10.5 2.69098L10.2061 2.90451L10.3184 2.55902L10.0245 2.34549H10.3877L10.5 2Z" fill="#D9D9D9"/>
<path d="M9.5 5L9.61226 5.34549H9.97553L9.68164 5.55902L9.79389 5.90451L9.5 5.69098L9.20611 5.90451L9.31836 5.55902L9.02447 5.34549H9.38774L9.5 5Z" fill="#D9D9D9"/>
<path d="M9.5 7L9.61226 7.34549H9.97553L9.68164 7.55902L9.79389 7.90451L9.5 7.69098L9.20611 7.90451L9.31836 7.55902L9.02447 7.34549H9.38774L9.5 7Z" fill="#D9D9D9"/>
<path d="M11.5 1L11.6123 1.34549H11.9755L11.6816 1.55902L11.7939 1.90451L11.5 1.69098L11.2061 1.90451L11.3184 1.55902L11.0245 1.34549H11.3877L11.5 1Z" fill="#D9D9D9"/>
<path d="M11.5 3L11.6123 3.34549H11.9755L11.6816 3.55902L11.7939 3.90451L11.5 3.69098L11.2061 3.90451L11.3184 3.55902L11.0245 3.34549H11.3877L11.5 3Z" fill="#D9D9D9"/>
<path d="M11.5 5L11.6123 5.34549H11.9755L11.6816 5.55902L11.7939 5.90451L11.5 5.69098L11.2061 5.90451L11.3184 5.55902L11.0245 5.34549H11.3877L11.5 5Z" fill="#D9D9D9"/>
<path d="M11.5 7L11.6123 7.34549H11.9755L11.6816 7.55902L11.7939 7.90451L11.5 7.69098L11.2061 7.90451L11.3184 7.55902L11.0245 7.34549H11.3877L11.5 7Z" fill="#D9D9D9"/>
</g>
<defs>
<clipPath id="clip0_1_15">
<rect width="21" height="21" fill="white"/>
</clipPath>
</defs>
</svg>
