<svg width="21" height="21" viewBox="0 0 21 21" fill="none" xmlns="http://www.w3.org/2000/svg">
<g clip-path="url(#clip0_5_39)">
<rect width="21" height="21" fill="white"/>
<circle cx="10.5" cy="10.5" r="5.5" fill="#BA012B"/>
<path d="M1 5.46411L1.88889 3.92451L2.53841 4.29951L1.64952 5.83911L1 5.46411Z" fill="black"/>
<path d="M2.11111 3.53961L3 2.00001L3.64952 2.37501L2.76063 3.91461L2.11111 3.53961Z" fill="black"/>
<path d="M1.86603 5.96411L2.75492 4.42451L3.40444 4.79951L2.51555 6.33911L1.86603 5.96411Z" fill="black"/>
<path d="M2.97714 4.03961L3.86603 2.50001L4.51555 2.87501L3.62666 4.41461L2.97714 4.03961Z" fill="black"/>
<path d="M2.73206 6.46411L3.62094 4.92451L4.27046 5.29951L3.38157 6.83911L2.73206 6.46411Z" fill="black"/>
<path d="M3.84317 4.53961L4.73206 3.00001L5.38157 3.37501L4.49269 4.91461L3.84317 4.53961Z" fill="black"/>
<path d="M3.38159 14L4.27048 15.5396L3.62096 15.9146L2.73207 14.375L3.38159 14Z" fill="black"/>
<path d="M4.4927 15.9245L5.38159 17.4641L4.73207 17.8391L3.84318 16.2995L4.4927 15.9245Z" fill="black"/>
<path d="M2.51556 14.5L3.40445 16.0396L2.75493 16.4146L1.86604 14.875L2.51556 14.5Z" fill="black"/>
<path d="M3.62668 16.4245L4.51556 17.9641L3.86604 18.3391L2.97716 16.7995L3.62668 16.4245Z" fill="black"/>
<path d="M1.64954 15L2.53842 16.5396L1.88891 16.9146L1.00002 15.375L1.64954 15Z" fill="black"/>
<path d="M2.76065 16.9245L3.64954 18.4641L3.00002 18.8391L2.11113 17.2995L2.76065 16.9245Z" fill="black"/>
<path d="M17.9816 2L18.8705 3.5396L18.2209 3.9146L17.332 2.375L17.9816 2Z" fill="black"/>
<path d="M19.0927 3.9245L19.9816 5.4641L19.332 5.8391L18.4432 4.2995L19.0927 3.9245Z" fill="black"/>
<path d="M17.1155 2.5L18.0044 4.0396L17.3549 4.4146L16.466 2.875L17.1155 2.5Z" fill="black"/>
<path d="M18.2267 4.4245L19.1155 5.9641L18.466 6.3391L17.5771 4.7995L18.2267 4.4245Z" fill="black"/>
<path d="M16.2495 3L17.1384 4.5396L16.4889 4.9146L15.6 3.375L16.2495 3Z" fill="black"/>
<path d="M17.3606 4.9245L18.2495 6.4641L17.6 6.8391L16.7111 5.2995L17.3606 4.9245Z" fill="black"/>
<path d="M20.3914 15.1075L19.4431 16.6112L18.8087 16.2111L19.757 14.7074L20.3914 15.1075Z" fill="black"/>
<path d="M19.206 16.9871L18.2576 18.4908L17.6233 18.0907L18.5716 16.587L19.206 16.9871Z" fill="black"/>
<path d="M19.5456 14.574L18.5972 16.0777L17.9629 15.6776L18.9112 14.1739L19.5456 14.574Z" fill="black"/>
<path d="M18.3602 16.4536L17.4118 17.9573L16.7774 17.5573L17.7258 16.0536L18.3602 16.4536Z" fill="black"/>
<path d="M18.6998 14.0406L17.7514 15.5443L17.117 15.1442L18.0654 13.6405L18.6998 14.0406Z" fill="black"/>
<path d="M17.5143 15.9202L16.566 17.4239L15.9316 17.0238L16.88 15.5201L17.5143 15.9202Z" fill="black"/>
<mask id="mask0_5_39" style="mask-type:alpha" maskUnits="userSpaceOnUse" x="5" y="5" width="11" height="11">
<circle cx="10.5" cy="10.5" r="5.5" fill="#BA012B"/>
</mask>
<g mask="url(#mask0_5_39)">
<path d="M13 11.5C14.7824 11.5 15.8333 9.33333 16.5 8L17.5 4L3 4.5L5 11.5C5.5 11 7 9 9 9C11 9 11.2176 11.5 13 11.5Z" fill="#072F76" stroke="#072F76"/>
</g>
</g>
<defs>
<clipPath id="clip0_5_39">
<rect width="21" height="21" fill="white"/>
</clipPath>
</defs>
</svg>
