<svg width="21" height="21" viewBox="0 0 21 21" fill="none" xmlns="http://www.w3.org/2000/svg">
<g clip-path="url(#clip0_205_25)">
<rect width="21" height="21" fill="white"/>
<path d="M16 10.6877C16 10.6877 15.8146 10.6095 15.5304 10.4667C15.2638 10.334 15.3095 10.1757 15.3381 10.0398C15.3658 9.90463 15.7867 8.28081 15.7867 8.28081C15.7867 8.28081 14.4762 8.57288 14.2771 8.61528C14.0778 8.65841 14.0136 8.58738 13.985 8.52283C13.9567 8.45869 13.7857 7.71147 13.7857 7.71147C13.7857 7.71147 12.6817 9.03596 12.4465 9.2494C12.2121 9.46284 12.0836 9.19251 12.1262 8.98595C12.1688 8.7794 12.6531 5.95212 12.6531 5.95212C12.6531 5.95212 12.1193 6.2297 11.8984 6.35146C11.6775 6.47213 11.5255 6.39386 11.4117 6.20397C11.2976 6.01413 10.5 4.38089 10.5 4.38089C10.5 4.38089 9.7024 6.01413 9.58862 6.20402C9.47447 6.3939 9.32281 6.47218 9.10231 6.3515C8.88107 6.22974 8.34765 5.95216 8.34765 5.95216C8.34765 5.95216 8.83125 8.77944 8.87419 8.986C8.91713 9.19255 8.78867 9.46289 8.55385 9.24945C8.31902 9.03605 7.21504 7.71151 7.21504 7.71151C7.21504 7.71151 7.044 8.45874 7.01537 8.52288C6.98728 8.58743 6.92296 8.65841 6.72383 8.61533C6.52453 8.57293 5.21398 8.28085 5.21398 8.28085C5.21398 8.28085 5.63416 9.90467 5.66279 10.0398C5.69142 10.1757 5.73617 10.3341 5.47037 10.4667C5.18536 10.6095 5 10.6878 5 10.6878C5 10.6878 7.57089 12.8816 7.68504 12.995C7.79883 13.1092 7.82039 13.2092 7.7702 13.3585C7.72056 13.5082 7.2116 14.113 7.2116 14.113C7.2116 14.113 9.96567 13.756 10.0873 13.8006C10.2088 13.8448 10.3085 13.8336 10.3422 14.1546C10.3748 14.4757 10.2592 16.1227 10.2592 16.1227H10.4893H10.5107H10.7417C10.7417 16.1227 10.6256 14.4757 10.6593 14.1546C10.6915 13.8336 10.7912 13.8448 10.9131 13.8006C11.0343 13.756 13.7888 14.113 13.7888 14.113C13.7888 14.113 13.2798 13.5082 13.2298 13.3585C13.1803 13.2092 13.2012 13.1092 13.3157 12.995C13.4291 12.8816 16 10.6877 16 10.6877Z" fill="#F41717"/>
<path d="M0 0H4V21H0V0Z" fill="#F41717"/>
<rect x="17" width="4" height="21" fill="#F41717"/>
</g>
<defs>
<clipPath id="clip0_205_25">
<rect width="21" height="21" fill="white"/>
</clipPath>
</defs>
</svg>
