<svg width="21" height="21" viewBox="0 0 21 21" fill="none" xmlns="http://www.w3.org/2000/svg">
<rect width="21" height="21" fill="#F41717"/>
<path d="M0 0H7V21H0V0Z" fill="#006101"/>
<g clip-path="url(#clip0_204_6)">
<path d="M6.99999 5.10001C5.68275 5.10001 4.41946 5.61626 3.48803 6.53519C2.5566 7.45412 2.03333 8.70045 2.03333 10C2.03318 10.6436 2.16154 11.2809 2.41107 11.8755C2.6606 12.4701 3.02642 13.0104 3.48763 13.4656C3.94885 13.9207 4.49642 14.2817 5.09907 14.528C5.70173 14.7743 6.34767 14.9011 6.99999 14.9011C7.65232 14.9011 8.29825 14.7743 8.90091 14.528C9.50357 14.2817 10.0511 13.9207 10.5123 13.4656C10.9736 13.0104 11.3394 12.4701 11.5889 11.8755C11.8384 11.2809 11.9668 10.6436 11.9667 10C11.9667 8.70045 11.4434 7.45412 10.512 6.53519C9.58053 5.61626 8.31723 5.10001 6.99999 5.10001ZM3.20484 7.91384L4.19941 8.89507L2.67216 9.64844C2.72145 9.03922 2.90313 8.44761 3.20484 7.91384ZM2.67216 10.351L5.40383 11.7028L3.72385 12.8077L3.73255 12.8206C3.11909 12.1313 2.74723 11.2653 2.67216 10.351ZM6.37916 14.2385C5.81005 14.1584 5.26292 13.9668 4.76996 13.675H6.37916V14.2385ZM6.37916 13.0625H4.4552L6.37916 11.7971V13.0625ZM6.37916 11.0609L6.00231 11.3089L3.34825 10L4.66193 9.35199L6.37916 11.0456V11.0609ZM6.37916 10.1795L4.17955 8.00939L6.37916 8.37076V10.1795ZM6.37916 7.73437L3.62763 7.29766C4.31611 6.46216 5.29868 5.9136 6.37916 5.76151V7.73437ZM10.7951 7.91384C11.0969 8.4478 11.2786 9.03962 11.3278 9.64905L9.80057 8.89568L10.7951 7.91384ZM7.62083 5.76151C8.70122 5.91383 9.68371 6.46235 10.3724 7.29766L7.62083 7.73437V5.76151ZM7.62083 8.37076L9.82044 8.00878L7.62083 10.1795V8.37076ZM7.62083 11.0456L9.33743 9.35199L10.6517 10L7.99829 11.3089L7.62083 11.0609V11.0456ZM7.62083 14.2385V13.675H9.23003C8.73707 13.9668 8.18994 14.1584 7.62083 14.2385ZM7.62083 13.0625V11.7971L9.54479 13.0625H7.62083ZM10.2681 12.8206L10.2768 12.8077L8.59678 11.7028L11.3284 10.351C11.2528 11.2651 10.881 12.131 10.2681 12.8206Z" fill="#FFCC4D"/>
<path d="M4.51666 6.9375V11.225C4.51666 11.8748 4.7783 12.498 5.24401 12.9574C5.70973 13.4169 6.34138 13.675 7 13.675C7.65862 13.675 8.29026 13.4169 8.75598 12.9574C9.22169 12.498 9.48333 11.8748 9.48333 11.225V6.9375H4.51666Z" fill="#D52B1E"/>
<path d="M5.13751 7.55002V11.225C5.13751 11.7124 5.33374 12.1797 5.68303 12.5243C6.03231 12.8689 6.50605 13.0625 7.00001 13.0625C7.49398 13.0625 7.96771 12.8689 8.317 12.5243C8.66629 12.1797 8.86251 11.7124 8.86251 11.225V7.55002H5.13751Z" fill="white"/>
<path d="M5.7583 9.38751H8.24163V10.6125H5.7583V9.38751Z" fill="#829ACD"/>
<path d="M6.37915 8.77502H7.62082V11.225H6.37915V8.77502Z" fill="#829ACD"/>
<path d="M5.13751 9.38752H5.75835V10.6125H5.13751V9.38752ZM6.37918 9.38752H7.62085V10.6125H6.37918V9.38752ZM8.24168 9.38752H8.86251V10.6125H8.24168V9.38752ZM6.37918 11.225H7.62085V12.45H6.37918V11.225ZM6.37918 7.55002H7.62085V8.77502H6.37918V7.55002Z" fill="#003399"/>
</g>
<defs>
<clipPath id="clip0_204_6">
<rect width="10" height="10" fill="white" transform="translate(2 5)"/>
</clipPath>
</defs>
</svg>
