<svg width="21" height="21" viewBox="0 0 21 21" fill="none" xmlns="http://www.w3.org/2000/svg">
<rect width="21" height="21" fill="#E02712"/>
<path d="M5.5 2L6.2858 4.41844H8.8287L6.77145 5.91312L7.55725 8.33156L5.5 6.83688L3.44275 8.33156L4.22855 5.91312L2.1713 4.41844H4.7142L5.5 2Z" fill="#FDD803"/>
<path d="M14 3L14.2245 3.69098H14.9511L14.3633 4.11803L14.5878 4.80902L14 4.38197L13.4122 4.80902L13.6367 4.11803L13.0489 3.69098H13.7755L14 3Z" fill="#FDD803"/>
<path d="M11 1L11.2245 1.69098H11.9511L11.3633 2.11803L11.5878 2.80902L11 2.38197L10.4122 2.80902L10.6367 2.11803L10.0489 1.69098H10.7755L11 1Z" fill="#FDD803"/>
<path d="M14 7L14.2245 7.69098H14.9511L14.3633 8.11803L14.5878 8.80902L14 8.38197L13.4122 8.80902L13.6367 8.11803L13.0489 7.69098H13.7755L14 7Z" fill="#FDD803"/>
<path d="M11 9L11.2245 9.69098H11.9511L11.3633 10.118L11.5878 10.809L11 10.382L10.4122 10.809L10.6367 10.118L10.0489 9.69098H10.7755L11 9Z" fill="#FDD803"/>
</svg>
